<svg width="32" height="32" viewBox="0 0 32 32" fill="none" xmlns="http://www.w3.org/2000/svg">
<g id="icon cool-icon-13">
<path id="coolicon" d="M16.0003 29.3333C8.63653 29.3333 2.66699 23.3638 2.66699 16C2.66699 8.63616 8.63653 2.66663 16.0003 2.66663C23.3641 2.66663 29.3337 8.63616 29.3337 16C29.3256 23.3604 23.3608 29.3252 16.0003 29.3333ZM16.0003 5.33329C10.1093 5.33329 5.33366 10.1089 5.33366 16C5.33366 21.891 10.1093 26.6666 16.0003 26.6666C21.8914 26.6666 26.667 21.891 26.667 16C26.6604 10.1117 21.8886 5.33991 16.0003 5.33329ZM21.3337 22.6666H10.667V20H21.3337V22.6666ZM11.3337 16C10.2291 16 9.33366 15.1045 9.33366 14C9.33366 12.8954 10.2291 12 11.3337 12C12.4382 12 13.3337 12.8954 13.3337 14C13.3337 15.1045 12.4382 16 11.3337 16ZM20.6577 15.9813C19.5582 15.9813 18.667 15.09 18.667 13.9906C18.667 12.8912 19.5582 12 20.6577 12C21.7571 12 22.6483 12.8912 22.6483 13.9906C22.6469 15.0894 21.7565 15.9798 20.6577 15.9813Z" fill="#E74040"/>
</g>
</svg>
